# Low poly orb
o LowPolyOrb
v 0.0000 0.8507 0.0000
v 0.4472 0.7236 0.2764
v -0.1708 0.7236 0.4961
v -0.5528 0.7236 0.0000
v -0.1708 0.7236 -0.4961
v 0.4472 0.7236 -0.2764
v 0.7236 0.2764 0.4472
v 0.0000 0.2764 0.7236
v -0.7236 0.2764 0.4472
v -0.7236 0.2764 -0.4472
v 0.0000 0.2764 -0.7236
v 0.7236 0.2764 -0.4472
v 0.5528 -0.2764 0.0000
v 0.1708 -0.2764 0.4961
v -0.4472 -0.2764 0.2764
v -0.4472 -0.2764 -0.2764
v 0.1708 -0.2764 -0.4961
v 0.7236 -0.2764 -0.0000
v 0.4472 -0.7236 0.2764
v -0.1708 -0.7236 0.4961
v -0.5528 -0.7236 0.0000
v -0.1708 -0.7236 -0.4961
v 0.4472 -0.7236 -0.2764
v 0.0000 -0.8507 0.0000
f 1 2 3
f 1 3 4
f 1 4 5
f 1 5 6
f 1 6 2
f 2 7 8
f 2 8 3
f 3 8 9
f 3 9 4
f 4 9 10
f 4 10 5
f 5 10 11
f 5 11 6
f 6 11 12
f 6 12 2
f 2 12 7
f 7 13 14
f 7 14 8
f 8 14 15
f 8 15 9
f 9 15 16
f 9 16 10
f 10 16 17
f 10 17 11
f 11 17 18
f 11 18 12
f 12 18 13
f 12 13 7
f 13 19 14
f 14 20 15
f 15 21 16
f 16 22 17
f 17 23 18
f 18 23 19
f 19 24 20
f 20 24 21
f 21 24 22
f 22 24 23
f 23 24 19
